<svg xmlns="http://www.w3.org/2000/svg" version="1.1" xmlns:xlink="http://www.w3.org/1999/xlink" xmlns:svgjs="http://svgjs.dev/svgjs" width="1080" height="1440" preserveAspectRatio="none" viewBox="0 0 1080 1440">
    <g mask="url(&quot;#SvgjsMask1020&quot;)" fill="none">
        <path d="M76.13 99.38 a299.3 299.3 0 1 0 598.6 0 a299.3 299.3 0 1 0 -598.6 0z" fill="rgba(255, 82, 23, 0.4)" class="triangle-float2"></path>
        <path d="M168.246,1554.606C276.314,1557.799,389.013,1527.659,446.761,1436.258C508.036,1339.274,510.405,1210.018,445.893,1115.157C387.35,1029.072,272.327,1024.503,168.246,1026.716C69.46,1028.817,-36.518,1043.257,-89.677,1126.546C-146.211,1215.123,-137.381,1330.595,-83.149,1420.6C-30.622,1507.776,66.512,1551.6,168.246,1554.606" fill="rgba(255, 82, 23, 0.4)" class="triangle-float2"></path>
        <path d="M-200.32 168.9 a306.42 306.42 0 1 0 612.84 0 a306.42 306.42 0 1 0 -612.84 0z" fill="rgba(255, 82, 23, 0.4)" class="triangle-float3"></path>
        <path d="M319.335,1481.165C408.184,1481.673,481.465,1420.233,526.577,1343.687C572.518,1265.735,598.651,1167.084,549.03,1091.422C502.326,1020.208,404.379,1023.192,319.335,1027.687C244.551,1031.639,168.88,1050.811,128.165,1113.664C83.881,1182.027,78.572,1269.078,116.161,1341.339C156.825,1419.511,231.22,1480.661,319.335,1481.165" fill="rgba(255, 82, 23, 0.4)" class="triangle-float2"></path>
        <path d="M652.8040978991954 1335.1215242570659L781.8888776528364 1071.0974238513434 525.3344699002197 1084.5428706269338z" fill="rgba(255, 82, 23, 0.4)" class="triangle-float1"></path>
        <path d="M519.7645449732082 522.826036652628L652.5021573850336 411.44595503451256 541.1220757669181 278.7083426226872 408.3844633550928 390.0884242408026z" fill="rgba(255, 82, 23, 0.4)" class="triangle-float1"></path>
        <path d="M277.4410616481558 1455.584985718588L356.400357582655 1226.9785209059735 148.1900560083697 1263.6916147349662z" fill="rgba(255, 82, 23, 0.4)" class="triangle-float1"></path>
        <path d="M889.334,1092.934C996.254,1097.611,1095.471,1035.934,1148.73,943.105C1201.74,850.709,1203.49,734.856,1146.355,644.952C1092.781,560.652,989.046,529.103,889.334,534.938C799.93,540.17,724.309,594.654,679.623,672.266C635.041,749.698,626.612,842.047,666.475,922.01C711.242,1011.811,789.089,1088.549,889.334,1092.934" fill="rgba(255, 82, 23, 0.4)" class="triangle-float3"></path>
        <path d="M534.068144356102 1381.869418088812L699.2170213819242 1448.5938955744693 600.7926218417593 1216.7205410629897z" fill="rgba(255, 82, 23, 0.4)" class="triangle-float3"></path>
        <path d="M157.06398681502887 892.2024087010592L222.3007302759641 802.4117344510119 54.99634717042544 749.4519563846327z" fill="rgba(255, 82, 23, 0.4)" class="triangle-float3"></path>
        <path d="M320.46023010618535 53.734241598968794L124.9957441087702-141.73024439844633-70.4687418886449 53.73424159896882 124.99574410877023 249.19872759638395z" fill="rgba(255, 82, 23, 0.4)" class="triangle-float1"></path>
        <path d="M950.592,976.601C997.696,975.287,1031.305,936.475,1054.632,895.532C1077.66,855.113,1093.322,806.773,1070.418,766.283C1047.25,725.326,997.644,710.98,950.592,711.607C904.799,712.217,859.825,730.187,836.173,769.404C811.776,809.857,813.153,860.277,835.989,901.631C859.64,944.46,901.685,977.965,950.592,976.601" fill="rgba(255, 82, 23, 0.4)" class="triangle-float2"></path>
        <path d="M-103.6177504652608 18.032164764533192L38.70872968724788 150.75375466361982 29.10383943382584-124.29431538797549z" fill="rgba(255, 82, 23, 0.4)" class="triangle-float1"></path>
        <path d="M89.039,1299.553C128.962,1299.703,172.434,1292.249,192.716,1257.862C213.231,1223.08,199.539,1180.83,179.863,1145.567C159.522,1109.112,130.782,1071.58,89.039,1072.051C47.789,1072.516,21.66,1111.477,1.695,1147.577C-17.416,1182.133,-32.973,1222.851,-13.296,1257.088C6.428,1291.408,49.455,1299.404,89.039,1299.553" fill="rgba(255, 82, 23, 0.4)" class="triangle-float3"></path>
        <path d="M777.4586680982595 1262.8967643671178L1004.8868051183474 1103.6498684246615 618.2117721558031 1035.46862734703z" fill="rgba(255, 82, 23, 0.4)" class="triangle-float1"></path>
        <path d="M39.019,823.666C98.386,821.823,152.926,787.9,179.521,734.791C203.786,686.336,185.13,631.882,158.77,584.534C131.42,535.409,95.202,484.594,39.019,482.423C-19.912,480.146,-67.639,524.003,-97.913,574.614C-129.187,626.896,-146.807,690.627,-117.455,744.012C-87.233,798.98,-23.68,825.613,39.019,823.666" fill="rgba(255, 82, 23, 0.4)" class="triangle-float3"></path>
        <path d="M933.3922049466248 543.2716071475816L1000.1601335338493 254.06793529609155 644.1885330951347 476.5036785603571z" fill="rgba(255, 82, 23, 0.4)" class="triangle-float1"></path>
        <path d="M975.594,1375.362C1074.763,1379.686,1182.036,1362.529,1236.354,1279.446C1295.002,1189.739,1293.48,1068.899,1234.428,979.458C1180.157,897.258,1074.09,883.65,975.594,884.494C879.069,885.321,773.97,901.041,724.33,983.828C673.657,1068.338,698.234,1175.373,751.454,1258.303C800.246,1334.334,885.34,1371.427,975.594,1375.362" fill="rgba(255, 82, 23, 0.4)" class="triangle-float2"></path>
        <path d="M805.0881370426737 1435.4092218161338L919.1820378184435 1289.3756882339196 773.1485042362293 1175.2817874581497 659.0546034604595 1321.3153210403639z" fill="rgba(255, 82, 23, 0.4)" class="triangle-float1"></path>
        <path d="M83.33972806672696 488.1571918508316L48.66113393026475 707.1092181067211 267.6131601861541 741.7878122431832 302.2917543226164 522.8357859872939z" fill="rgba(255, 82, 23, 0.4)" class="triangle-float2"></path>
    </g>
    <defs>
        <mask id="SvgjsMask1020">
            <rect width="1080" height="1440" fill="#ffffff"></rect>
        </mask>
        <style>
            @keyframes float1 {
                    0%{transform: translate(0, 0)}
                    50%{transform: translate(-10px, 0)}
                    100%{transform: translate(0, 0)}
                }

                .triangle-float1 {
                    animation: float1 5s infinite;
                }

                @keyframes float2 {
                    0%{transform: translate(0, 0)}
                    50%{transform: translate(-5px, -5px)}
                    100%{transform: translate(0, 0)}
                }

                .triangle-float2 {
                    animation: float2 4s infinite;
                }

                @keyframes float3 {
                    0%{transform: translate(0, 0)}
                    50%{transform: translate(0, -10px)}
                    100%{transform: translate(0, 0)}
                }

                .triangle-float3 {
                    animation: float3 6s infinite;
                }
        </style>
    </defs>
</svg>